<svg width="1600" height="840" viewBox="0 0 1600 840" fill="none" xmlns="http://www.w3.org/2000/svg" role="img" aria-labelledby="title desc">
  <title id="title">Hermes Loop Engineering</title>
  <desc id="desc">Safe scheduled Hermes Agent loops with durable state, verification, and human gates.</desc>
  <defs>
    <linearGradient id="bg" x1="0" y1="0" x2="1600" y2="840"><stop stop-color="#020617"/><stop offset="0.55" stop-color="#08111f"/><stop offset="1" stop-color="#111827"/></linearGradient>
    <radialGradient id="cyanGlow" cx="0" cy="0" r="1" gradientUnits="userSpaceOnUse" gradientTransform="translate(1060 280) rotate(135) scale(760 480)"><stop stop-color="#22d3ee" stop-opacity="0.42"/><stop offset="1" stop-color="#22d3ee" stop-opacity="0"/></radialGradient>
    <radialGradient id="amberGlow" cx="0" cy="0" r="1" gradientUnits="userSpaceOnUse" gradientTransform="translate(270 700) rotate(-32) scale(520 310)"><stop stop-color="#f59e0b" stop-opacity="0.22"/><stop offset="1" stop-color="#f59e0b" stop-opacity="0"/></radialGradient>
    <linearGradient id="card" x1="0" y1="0" x2="1" y2="1"><stop stop-color="#0f172a"/><stop offset="1" stop-color="#111827"/></linearGradient>
    <filter id="shadow" x="-30%" y="-30%" width="160%" height="160%"><feDropShadow dx="0" dy="22" stdDeviation="20" flood-color="#000" flood-opacity="0.42"/></filter>
    <pattern id="grid" width="44" height="44" patternUnits="userSpaceOnUse"><path d="M44 0H0V44" stroke="#1e293b" stroke-width="1" opacity="0.62" fill="none"/></pattern>
    <marker id="arrow" markerWidth="14" markerHeight="14" refX="12" refY="7" orient="auto"><path d="M2 2L12 7L2 12Z" fill="#67e8f9"/></marker>
    <marker id="arrowSlate" markerWidth="12" markerHeight="12" refX="10" refY="6" orient="auto"><path d="M2 2L10 6L2 10Z" fill="#94a3b8"/></marker>
  </defs>
  <rect width="1600" height="840" fill="url(#bg)"/>
  <rect width="1600" height="840" fill="url(#grid)" opacity="0.75"/>
  <rect width="1600" height="840" fill="url(#cyanGlow)"/>
  <rect width="1600" height="840" fill="url(#amberGlow)"/>

  <g transform="translate(94 82)">
    <rect x="0" y="0" width="226" height="44" rx="22" fill="#0f172a" stroke="#334155"/>
    <circle cx="26" cy="22" r="7" fill="#22d3ee"/>
    <text x="48" y="28" fill="#e2e8f0" font-family="DejaVu Sans" font-size="17" font-weight="800">HERMES AGENT STARTER</text>
    <text x="0" y="122" fill="#f8fafc" font-family="DejaVu Sans" font-size="72" font-weight="800">Hermes Loop Engineering</text>
    <text x="4" y="174" fill="#cbd5e1" font-family="DejaVu Sans" font-size="31" font-weight="500">Safe scheduled AI-agent work with durable state, verification, and human gates.</text>
  </g>

  <g transform="translate(112 310)" filter="url(#shadow)">
    <rect width="1376" height="400" rx="34" fill="#020617" fill-opacity="0.62" stroke="#334155"/>
    <path d="M226 200H360" stroke="#67e8f9" stroke-width="4" marker-end="url(#arrow)"/>
    <path d="M548 200H682" stroke="#67e8f9" stroke-width="4" marker-end="url(#arrow)"/>
    <path d="M870 200H1004" stroke="#67e8f9" stroke-width="4" marker-end="url(#arrow)"/>
    <path d="M1192 200 C1265 200 1298 255 1270 310 C1233 384 1110 358 1040 295" stroke="#94a3b8" stroke-width="3" marker-end="url(#arrowSlate)" opacity="0.82" fill="none" stroke-dasharray="8 9"/>

    <g transform="translate(40 120)">
      <rect width="190" height="160" rx="24" fill="url(#card)" stroke="#22d3ee" stroke-width="2"/>
      <circle cx="96" cy="45" r="22" fill="#083344" stroke="#22d3ee"/>
      <path d="M86 46h20M96 36v20" stroke="#67e8f9" stroke-width="3" stroke-linecap="round"/>
      <text x="95" y="100" text-anchor="middle" fill="#f8fafc" font-family="DejaVu Sans" font-size="25" font-weight="800">Prompt</text>
      <text x="95" y="128" text-anchor="middle" fill="#94a3b8" font-family="DejaVu Sans" font-size="15">runbook + scope</text>
    </g>
    <g transform="translate(362 120)">
      <rect width="190" height="160" rx="24" fill="url(#card)" stroke="#34d399" stroke-width="2"/>
      <circle cx="96" cy="45" r="22" fill="#064e3b" stroke="#34d399"/>
      <path d="M96 31v16l12 8" stroke="#86efac" stroke-width="3" stroke-linecap="round"/>
      <text x="95" y="100" text-anchor="middle" fill="#f8fafc" font-family="DejaVu Sans" font-size="25" font-weight="800">Cron</text>
      <text x="95" y="128" text-anchor="middle" fill="#94a3b8" font-family="DejaVu Sans" font-size="15">cadence + delivery</text>
    </g>
    <g transform="translate(684 120)">
      <rect width="190" height="160" rx="24" fill="url(#card)" stroke="#a78bfa" stroke-width="2"/>
      <circle cx="96" cy="45" r="22" fill="#3b0764" stroke="#a78bfa"/>
      <path d="M81 39c0-7 30-7 30 0v18c0 7-30 7-30 0zM81 39c0 7 30 7 30 0" stroke="#ddd6fe" stroke-width="3" fill="none"/>
      <text x="95" y="100" text-anchor="middle" fill="#f8fafc" font-family="DejaVu Sans" font-size="25" font-weight="800">State</text>
      <text x="95" y="128" text-anchor="middle" fill="#94a3b8" font-family="DejaVu Sans" font-size="15">JSON / Markdown</text>
    </g>
    <g transform="translate(1006 120)">
      <rect width="190" height="160" rx="24" fill="url(#card)" stroke="#fbbf24" stroke-width="2"/>
      <circle cx="96" cy="45" r="22" fill="#78350f" stroke="#fbbf24"/>
      <path d="M84 47l9 9 18-22" stroke="#fde68a" stroke-width="4" stroke-linecap="round" stroke-linejoin="round"/>
      <text x="95" y="100" text-anchor="middle" fill="#f8fafc" font-family="DejaVu Sans" font-size="25" font-weight="800">Verify</text>
      <text x="95" y="128" text-anchor="middle" fill="#94a3b8" font-family="DejaVu Sans" font-size="15">tests + evidence</text>
    </g>
    <g transform="translate(1202 54)">
      <rect width="132" height="292" rx="25" fill="#0f172a" stroke="#fb7185" stroke-width="2"/>
      <text x="66" y="72" text-anchor="middle" fill="#ffe4e6" font-family="DejaVu Sans" font-size="25" font-weight="800">Gate</text>
      <text x="66" y="104" text-anchor="middle" fill="#94a3b8" font-family="DejaVu Sans" font-size="15">approve</text>
      <text x="66" y="128" text-anchor="middle" fill="#94a3b8" font-family="DejaVu Sans" font-size="15">escalate</text>
      <text x="66" y="152" text-anchor="middle" fill="#94a3b8" font-family="DejaVu Sans" font-size="15">pause</text>
      <path d="M45 202l17 17 29-45" stroke="#fb7185" stroke-width="6" stroke-linecap="round" stroke-linejoin="round"/>
      <text x="66" y="259" text-anchor="middle" fill="#94a3b8" font-family="DejaVu Sans" font-size="15">human</text>
    </g>
  </g>

  <g transform="translate(112 745)">
    <rect width="235" height="48" rx="24" fill="#052e2f" stroke="#22d3ee"/>
    <text x="118" y="31" text-anchor="middle" fill="#e2e8f0" font-family="DejaVu Sans" font-size="17" font-weight="800">L1 REPORT-FIRST</text>
    <rect x="257" width="255" height="48" rx="24" fill="#052e1b" stroke="#34d399"/>
    <text x="385" y="31" text-anchor="middle" fill="#e2e8f0" font-family="DejaVu Sans" font-size="17" font-weight="800">LOW-NOISE ALERTS</text>
    <rect x="534" width="282" height="48" rx="24" fill="#2e1065" stroke="#a78bfa"/>
    <text x="675" y="31" text-anchor="middle" fill="#e2e8f0" font-family="DejaVu Sans" font-size="17" font-weight="800">DURABLE STATE</text>
    <rect x="838" width="302" height="48" rx="24" fill="#451a03" stroke="#fbbf24"/>
    <text x="989" y="31" text-anchor="middle" fill="#e2e8f0" font-family="DejaVu Sans" font-size="17" font-weight="800">VERIFIED ACTIONS</text>
  </g>
</svg>
