<svg width="1600" height="840" viewBox="0 0 1600 840" fill="none" xmlns="http://www.w3.org/2000/svg">
  <defs>
    <linearGradient id="bg" x1="0" y1="0" x2="1600" y2="840" gradientUnits="userSpaceOnUse">
      <stop stop-color="#020617"/>
      <stop offset="0.55" stop-color="#0f172a"/>
      <stop offset="1" stop-color="#111827"/>
    </linearGradient>
    <radialGradient id="glow" cx="0" cy="0" r="1" gradientUnits="userSpaceOnUse" gradientTransform="translate(1120 260) rotate(133) scale(650 420)">
      <stop stop-color="#22d3ee" stop-opacity="0.35"/>
      <stop offset="1" stop-color="#22d3ee" stop-opacity="0"/>
    </radialGradient>
    <pattern id="grid" width="48" height="48" patternUnits="userSpaceOnUse">
      <path d="M 48 0 L 0 0 0 48" fill="none" stroke="#1e293b" stroke-width="1" opacity="0.7"/>
    </pattern>
    <marker id="arrow" markerWidth="12" markerHeight="12" refX="10" refY="6" orient="auto" markerUnits="strokeWidth">
      <path d="M2,2 L10,6 L2,10 Z" fill="#67e8f9"/>
    </marker>
    <filter id="shadow" x="-20%" y="-20%" width="140%" height="140%">
      <feDropShadow dx="0" dy="16" stdDeviation="18" flood-color="#000" flood-opacity="0.35"/>
    </filter>
  </defs>
  <rect width="1600" height="840" fill="url(#bg)"/>
  <rect width="1600" height="840" fill="url(#grid)" opacity="0.6"/>
  <rect width="1600" height="840" fill="url(#glow)"/>

  <text x="96" y="142" fill="#f8fafc" font-family="Inter, ui-sans-serif, system-ui" font-size="76" font-weight="800">Hermes Loop Engineering</text>
  <text x="102" y="198" fill="#94a3b8" font-family="Inter, ui-sans-serif, system-ui" font-size="30">Safe scheduled agent work: stateful, verified, low-noise.</text>

  <g stroke="#67e8f9" stroke-width="4" marker-end="url(#arrow)" opacity="0.9">
    <path d="M345 390 C430 330, 540 330, 625 390"/>
    <path d="M775 390 C860 330, 970 330, 1055 390"/>
    <path d="M1205 390 C1290 455, 1290 565, 1205 630"/>
    <path d="M1055 680 C970 740, 860 740, 775 680"/>
    <path d="M625 680 C540 740, 430 740, 345 680"/>
    <path d="M235 630 C150 565, 150 455, 235 390"/>
  </g>

  <g filter="url(#shadow)" font-family="Inter, ui-sans-serif, system-ui">
    <g transform="translate(160 316)">
      <rect width="230" height="120" rx="22" fill="#0f172a" stroke="#22d3ee" stroke-width="2"/>
      <text x="115" y="50" text-anchor="middle" fill="#e0f2fe" font-size="24" font-weight="700">Prompt</text>
      <text x="115" y="84" text-anchor="middle" fill="#94a3b8" font-size="16">self-contained runbook</text>
    </g>
    <g transform="translate(590 316)">
      <rect width="230" height="120" rx="22" fill="#0f172a" stroke="#34d399" stroke-width="2"/>
      <text x="115" y="50" text-anchor="middle" fill="#dcfce7" font-size="24" font-weight="700">Schedule</text>
      <text x="115" y="84" text-anchor="middle" fill="#94a3b8" font-size="16">Hermes cron</text>
    </g>
    <g transform="translate(1020 316)">
      <rect width="230" height="120" rx="22" fill="#0f172a" stroke="#a78bfa" stroke-width="2"/>
      <text x="115" y="50" text-anchor="middle" fill="#ede9fe" font-size="24" font-weight="700">State</text>
      <text x="115" y="84" text-anchor="middle" fill="#94a3b8" font-size="16">JSON / wiki / board</text>
    </g>
    <g transform="translate(1020 600)">
      <rect width="230" height="120" rx="22" fill="#0f172a" stroke="#fbbf24" stroke-width="2"/>
      <text x="115" y="50" text-anchor="middle" fill="#fef3c7" font-size="24" font-weight="700">Verify</text>
      <text x="115" y="84" text-anchor="middle" fill="#94a3b8" font-size="16">real evidence</text>
    </g>
    <g transform="translate(590 600)">
      <rect width="230" height="120" rx="22" fill="#0f172a" stroke="#fb7185" stroke-width="2"/>
      <text x="115" y="50" text-anchor="middle" fill="#ffe4e6" font-size="24" font-weight="700">Gate</text>
      <text x="115" y="84" text-anchor="middle" fill="#94a3b8" font-size="16">human approval</text>
    </g>
    <g transform="translate(160 600)">
      <rect width="230" height="120" rx="22" fill="#0f172a" stroke="#fb923c" stroke-width="2"/>
      <text x="115" y="50" text-anchor="middle" fill="#ffedd5" font-size="24" font-weight="700">Report</text>
      <text x="115" y="84" text-anchor="middle" fill="#94a3b8" font-size="16">changes only</text>
    </g>
  </g>

  <g transform="translate(1310 555)">
    <rect width="190" height="112" rx="18" fill="#020617" fill-opacity="0.78" stroke="#334155"/>
    <text x="24" y="36" fill="#e2e8f0" font-family="Inter, ui-sans-serif" font-size="18" font-weight="700">Default mode</text>
    <text x="24" y="66" fill="#34d399" font-family="Inter, ui-sans-serif" font-size="20" font-weight="800">L1 Report</text>
    <text x="24" y="92" fill="#94a3b8" font-family="Inter, ui-sans-serif" font-size="14">no mutation first</text>
  </g>
</svg>
