<svg width="1280" height="640" viewBox="0 0 1280 640" fill="none" xmlns="http://www.w3.org/2000/svg" role="img" aria-labelledby="title desc">
  <title id="title">Hermes Loop Engineering social preview</title>
  <desc id="desc">GitHub social preview for Hermes Loop Engineering.</desc>
  <defs>
    <linearGradient id="bg" x1="0" y1="0" x2="1280" y2="640"><stop stop-color="#020617"/><stop offset="0.6" stop-color="#0f172a"/><stop offset="1" stop-color="#111827"/></linearGradient>
    <radialGradient id="glow" cx="0" cy="0" r="1" gradientUnits="userSpaceOnUse" gradientTransform="translate(860 210) rotate(135) scale(610 360)"><stop stop-color="#22d3ee" stop-opacity="0.42"/><stop offset="1" stop-color="#22d3ee" stop-opacity="0"/></radialGradient>
    <pattern id="grid" width="40" height="40" patternUnits="userSpaceOnUse"><path d="M40 0H0V40" stroke="#1e293b" stroke-width="1" opacity="0.62" fill="none"/></pattern>
    <filter id="shadow" x="-30%" y="-30%" width="160%" height="160%"><feDropShadow dx="0" dy="22" stdDeviation="20" flood-color="#000" flood-opacity="0.4"/></filter>
    <marker id="arrow" markerWidth="14" markerHeight="14" refX="12" refY="7" orient="auto"><path d="M2 2L12 7L2 12Z" fill="#67e8f9"/></marker>
  </defs>
  <rect width="1280" height="640" fill="url(#bg)"/>
  <rect width="1280" height="640" fill="url(#grid)"/>
  <rect width="1280" height="640" fill="url(#glow)"/>
  <text x="76" y="105" fill="#f8fafc" font-family="DejaVu Sans" font-size="66" font-weight="800">Hermes Loop Engineering</text>
  <text x="80" y="146" fill="#cbd5e1" font-family="DejaVu Sans" font-size="25" font-weight="500">Starter kit for safe scheduled AI-agent workflows.</text>
  <g transform="translate(90 224)" filter="url(#shadow)">
    <rect width="1100" height="210" rx="32" fill="#020617" fill-opacity="0.7" stroke="#334155"/>
    <g stroke="#67e8f9" stroke-width="4" marker-end="url(#arrow)"><path d="M170 105h105"/><path d="M445 105h105"/><path d="M720 105h105"/></g>
    <g transform="translate(34 52)"><rect width="150" height="106" rx="20" fill="#0f172a" stroke="#22d3ee" stroke-width="2"/><text x="75" y="49" text-anchor="middle" fill="#f8fafc" font-family="DejaVu Sans" font-size="19" font-weight="800">Prompt</text><text x="75" y="74" text-anchor="middle" fill="#94a3b8" font-family="DejaVu Sans" font-size="13">runbook</text></g>
    <g transform="translate(309 52)"><rect width="150" height="106" rx="20" fill="#0f172a" stroke="#34d399" stroke-width="2"/><text x="75" y="49" text-anchor="middle" fill="#f8fafc" font-family="DejaVu Sans" font-size="19" font-weight="800">Cron</text><text x="75" y="74" text-anchor="middle" fill="#94a3b8" font-family="DejaVu Sans" font-size="13">schedule</text></g>
    <g transform="translate(584 52)"><rect width="150" height="106" rx="20" fill="#0f172a" stroke="#a78bfa" stroke-width="2"/><text x="75" y="49" text-anchor="middle" fill="#f8fafc" font-family="DejaVu Sans" font-size="19" font-weight="800">State</text><text x="75" y="74" text-anchor="middle" fill="#94a3b8" font-family="DejaVu Sans" font-size="13">durable</text></g>
    <g transform="translate(859 52)"><rect width="150" height="106" rx="20" fill="#0f172a" stroke="#fbbf24" stroke-width="2"/><text x="75" y="49" text-anchor="middle" fill="#f8fafc" font-family="DejaVu Sans" font-size="19" font-weight="800">Verify</text><text x="75" y="74" text-anchor="middle" fill="#94a3b8" font-family="DejaVu Sans" font-size="13">evidence</text></g>
  </g>
  <g transform="translate(90 487)">
    <rect width="190" height="44" rx="22" fill="#052e2f" stroke="#22d3ee"/><text x="95" y="28" text-anchor="middle" fill="#e2e8f0" font-family="DejaVu Sans" font-size="14" font-weight="800">L1 REPORT-FIRST</text>
    <rect x="210" width="208" height="44" rx="22" fill="#052e1b" stroke="#34d399"/><text x="314" y="28" text-anchor="middle" fill="#e2e8f0" font-family="DejaVu Sans" font-size="14" font-weight="800">LOW-NOISE ALERTS</text>
    <rect x="438" width="210" height="44" rx="22" fill="#2e1065" stroke="#a78bfa"/><text x="543" y="28" text-anchor="middle" fill="#e2e8f0" font-family="DejaVu Sans" font-size="14" font-weight="800">DURABLE STATE</text>
    <rect x="668" width="225" height="44" rx="22" fill="#451a03" stroke="#fbbf24"/><text x="781" y="28" text-anchor="middle" fill="#e2e8f0" font-family="DejaVu Sans" font-size="14" font-weight="800">VERIFIED ACTIONS</text>
  </g>
</svg>
